<svg version="1.1" id="Layer_1" xmlns="http://www.w3.org/2000/svg" xmlns:xlink="http://www.w3.org/1999/xlink" x="0px" y="0px"
	 width="100%" viewBox="0 0 1254 1254" enable-background="new 0 0 1254 1254" xml:space="preserve">
<path fill="#01020C" opacity="1.000000" stroke="none" 
	d="
M790.000000,1255.000000 
	C526.666687,1255.000000 263.833435,1255.000000 1.000106,1255.000000 
	C1.000071,837.000122 1.000071,419.000244 1.000035,1.000274 
	C418.999786,1.000183 836.999573,1.000183 1254.999512,1.000091 
	C1254.999756,418.999725 1254.999756,836.999451 1254.999878,1254.999512 
	C1100.166626,1255.000000 945.333313,1255.000000 790.000000,1255.000000 
M420.207733,742.847229 
	C420.272736,773.849792 420.337738,804.852356 420.186981,836.788208 
	C420.208344,863.497864 419.963837,890.212830 420.501740,916.912048 
	C420.596039,921.592529 423.974518,926.206726 426.026306,931.401306 
	C432.216736,938.690796 440.199005,940.343384 449.073395,938.275635 
	C459.923767,935.747620 470.709961,932.935547 481.489532,930.115051 
	C489.692566,927.968872 497.874237,925.725403 505.995361,923.291382 
	C508.359283,922.582886 511.668732,921.942017 510.443176,918.051880 
	C508.839264,912.960693 507.329437,907.923096 508.818512,902.491638 
	C509.048340,901.653320 508.502625,900.551208 508.175598,899.620361 
	C506.954559,896.144836 505.675323,892.689880 504.262604,888.799438 
	C504.182587,888.804565 503.357697,888.743469 502.589325,888.923523 
	C492.234558,891.349854 481.849854,893.664307 471.559570,896.341003 
	C468.023773,897.260803 465.380646,896.916687 463.440613,892.956909 
	C463.442932,878.837708 463.481659,864.718445 463.435059,850.599426 
	C463.402740,840.810974 463.252869,831.023010 463.259186,820.261353 
	C463.309814,808.139404 463.419250,796.017395 463.393677,783.895630 
	C463.370544,772.949707 463.199768,762.004089 463.269501,750.126587 
	C463.293884,735.685059 463.361023,721.243408 463.331360,706.801941 
	C463.297943,690.542969 463.177277,674.284058 463.309631,657.105957 
	C463.409210,582.987549 463.533936,508.869141 463.597443,434.750702 
	C463.628113,398.940948 463.462433,363.130920 463.560822,327.321472 
	C463.590240,316.607819 464.709290,316.043091 474.920227,319.366333 
	C489.943085,324.255615 504.982880,329.093079 520.414856,334.213837 
	C520.414856,334.213837 520.892090,334.197876 521.440491,334.628357 
	C523.962585,335.410370 526.484741,336.192413 529.403625,337.246185 
	C529.403625,337.246185 529.884521,337.238007 530.325989,337.621613 
	C530.892761,337.725006 531.459534,337.828400 532.620056,338.334076 
	C534.711426,338.963104 536.802795,339.592133 539.337952,340.608551 
	C539.909729,340.704590 540.481567,340.800629 541.646912,341.288116 
	C562.739258,348.297058 583.822083,355.334747 604.926208,362.308167 
	C635.648132,372.459534 666.385315,382.564636 697.797668,392.989105 
	C709.723328,396.972137 721.655212,400.936676 733.573181,404.942627 
	C750.121460,410.504974 766.640747,416.154327 783.208740,421.657043 
	C792.833679,424.853729 793.044312,425.086884 793.053772,435.390594 
	C793.078247,461.988647 793.158752,488.586609 793.059814,516.086731 
	C793.054260,571.899536 793.035767,627.712341 793.053284,683.525146 
	C793.057129,695.681458 793.189575,707.837708 793.092590,720.918396 
	C793.054504,774.414551 793.023682,827.910645 792.968750,881.406799 
	C792.962280,887.660950 791.423096,888.876587 785.451172,887.231506 
	C765.870850,881.837830 746.228271,876.647461 726.768738,870.845215 
	C712.578247,866.614014 698.732727,866.653198 684.617676,871.020264 
	C666.375122,876.664307 647.994263,881.861267 628.773682,887.515320 
	C631.276245,888.238098 632.855164,888.708862 634.442200,889.150330 
	C664.763306,897.585205 695.090759,905.997192 725.405579,914.454407 
	C753.166443,922.199036 780.872009,930.145813 808.684814,937.698425 
	C822.727844,941.511963 835.418701,932.013733 836.367676,917.511108 
	C836.541504,914.854187 836.485840,912.180420 836.485779,909.514404 
	C836.484314,844.186340 836.491455,778.858276 836.456238,713.530212 
	C836.448792,699.706909 836.281982,685.883728 836.412415,671.270264 
	C836.438538,618.513062 836.483948,565.755798 836.476440,512.998596 
	C836.474670,500.691681 836.293213,488.384766 836.400024,475.137207 
	C836.433838,454.009186 836.537964,432.880981 836.473206,411.753265 
	C836.438049,400.302185 830.124023,392.059113 818.959290,388.400208 
	C810.592285,385.658112 802.213684,382.951630 793.849243,380.201813 
	C771.274170,372.780151 748.703796,365.343811 725.588501,357.497742 
	C724.718445,357.296722 723.848389,357.095703 722.334473,356.490967 
	C720.875977,356.061493 719.417419,355.632019 717.375793,354.861053 
	C712.287842,353.137970 707.210693,351.382019 702.109741,349.698334 
	C689.965393,345.689819 677.805603,341.727783 665.659424,337.724915 
	C632.691040,326.859985 599.726562,315.983521 566.193481,304.722534 
	C560.655701,302.912140 555.118530,301.099915 549.580017,299.291656 
	C516.351135,288.443024 483.171051,277.441162 449.870880,266.815674 
	C434.412201,261.883087 420.659607,272.076355 420.179504,288.236023 
	C420.110291,290.566284 420.136780,292.899719 420.137146,295.231689 
	C420.154480,406.834442 420.166962,518.437195 420.202637,630.039978 
	C420.206573,642.360229 420.344452,654.680420 420.244354,667.922302 
	C420.305908,692.589478 420.367493,717.256714 420.207733,742.847229 
M617.435974,756.095581 
	C625.097839,760.613770 632.780212,760.425903 639.832764,755.188904 
	C646.138550,750.506348 648.160034,743.741272 646.454590,736.121826 
	C644.620667,727.928223 637.656311,722.070618 629.588135,721.505432 
	C621.339905,720.927673 613.764648,725.402100 610.750854,732.632080 
	C607.096558,741.398376 609.139160,749.159729 617.435974,756.095581 
M642.815247,560.747864 
	C636.229492,553.497559 626.735657,551.574951 618.926514,555.910156 
	C611.130432,560.238098 607.322937,568.728638 609.569580,577.048584 
	C611.800171,585.309265 617.425842,590.160889 625.667236,591.472168 
	C633.233948,592.676086 639.515564,589.633728 643.723938,583.298035 
	C648.555420,576.024048 648.072266,568.562805 642.815247,560.747864 
M611.908569,476.553558 
	C606.187561,487.462250 609.633179,499.453339 619.849243,504.187805 
	C629.850281,508.822601 641.720886,503.929565 645.784546,493.497345 
	C649.182312,484.774628 645.689941,475.259583 637.265259,470.286194 
	C629.249268,465.554077 619.117126,467.846893 611.908569,476.553558 
M621.092041,639.348633 
	C620.052917,639.871216 618.959290,640.308167 617.983398,640.929932 
	C610.371887,645.779541 607.158813,654.778076 610.020996,663.115662 
	C612.741089,671.039429 620.723328,676.454041 628.904114,675.924561 
	C638.317566,675.315430 645.190186,669.161072 646.742065,659.950928 
	C649.089722,646.018127 636.507690,635.476135 621.092041,639.348633 
z"/>
<path fill="#00D89E" opacity="1.000000" stroke="none" 
	d="
M420.420197,667.000671 
	C420.344452,654.680420 420.206573,642.360229 420.202637,630.039978 
	C420.166962,518.437195 420.154480,406.834442 420.137146,295.231689 
	C420.136780,292.899719 420.110291,290.566284 420.179504,288.236023 
	C420.659607,272.076355 434.412201,261.883087 449.870880,266.815674 
	C483.171051,277.441162 516.351135,288.443024 549.580017,299.291656 
	C555.118530,301.099915 560.655701,302.912140 566.159302,305.042847 
	C563.039734,305.207672 559.881592,304.561371 556.885071,305.005646 
	C551.692322,305.775513 546.610901,307.275543 541.455627,308.337585 
	C540.402588,308.554535 539.147339,308.418213 538.128845,308.048920 
	C535.771667,307.194061 533.502441,306.096771 531.197510,305.097839 
	C528.929382,303.791321 526.725281,302.389832 524.392883,302.127136 
	C517.012512,301.296021 519.126160,308.460266 516.558594,312.100525 
	C518.219421,312.375763 519.761292,312.380371 521.109924,311.872162 
	C527.025269,309.643097 527.922241,310.126953 528.273926,316.449402 
	C528.340820,317.652679 528.110046,319.347809 527.336243,319.970551 
	C526.728271,320.459839 525.005554,319.811584 523.894897,319.372772 
	C522.052612,318.644867 520.376160,317.389221 518.489624,316.920654 
	C517.324402,316.631226 515.899414,317.387756 514.591003,317.674683 
	C515.214966,319.008209 515.505188,320.787964 516.544922,321.565582 
	C517.935303,322.605408 520.022888,322.659851 521.590942,323.532715 
	C522.773132,324.190735 524.072815,325.334808 524.418945,326.524750 
	C524.613220,327.192505 522.831238,328.307434 522.199219,329.374603 
	C521.341125,330.823517 520.731567,332.419647 520.015442,333.952637 
	C504.982880,329.093079 489.943085,324.255615 474.920227,319.366333 
	C464.709290,316.043091 463.590240,316.607819 463.560822,327.321472 
	C463.462433,363.130920 463.628113,398.940948 463.597443,434.750702 
	C463.533936,508.869141 463.409210,582.987549 462.982269,657.212097 
	C462.437439,655.352295 462.042450,653.387268 462.031799,651.420166 
	C461.970428,640.097046 462.026520,628.773193 461.986053,617.449890 
	C461.969299,612.762268 463.132690,607.680664 457.659302,604.727295 
	C456.843384,604.286987 456.579193,602.731873 456.167450,601.651489 
	C454.757568,597.951843 446.007080,592.294922 442.164795,593.281677 
	C440.287781,593.763733 438.691437,595.801941 437.250885,597.391968 
	C435.767792,599.029114 434.685303,601.021912 433.319031,602.774475 
	C432.418671,603.929382 430.893799,604.762390 430.387299,606.033875 
	C425.526306,618.236572 420.938782,630.480774 421.928986,644.051025 
	C422.364075,650.013977 422.112061,656.038696 421.926300,662.027771 
	C421.874451,663.699341 420.946350,665.343811 420.420197,667.000671 
M504.184753,313.387360 
	C503.023438,313.254578 501.862152,313.121826 500.700836,312.989044 
	C500.764008,313.717651 500.827209,314.446259 500.890411,315.174866 
	C501.945648,314.779236 503.000916,314.383636 504.184753,313.387360 
z"/>
<path fill="#636DFA" opacity="1.000000" stroke="none" 
	d="
M836.188599,672.060486 
	C836.281982,685.883728 836.448792,699.706909 836.456238,713.530212 
	C836.491455,778.858276 836.484314,844.186340 836.485779,909.514404 
	C836.485840,912.180420 836.541504,914.854187 836.367676,917.511108 
	C835.418701,932.013733 822.727844,941.511963 808.684814,937.698425 
	C780.872009,930.145813 753.166443,922.199036 725.405579,914.454407 
	C695.090759,905.997192 664.763306,897.585205 634.442200,889.150330 
	C632.855164,888.708862 631.276245,888.238098 628.773682,887.515320 
	C647.994263,881.861267 666.375122,876.664307 684.617676,871.020264 
	C698.732727,866.653198 712.578247,866.614014 726.768738,870.845215 
	C746.228271,876.647461 765.870850,881.837830 785.451172,887.231506 
	C791.423096,888.876587 792.962280,887.660950 792.968750,881.406799 
	C793.023682,827.910645 793.054504,774.414551 793.472473,720.270752 
	C794.253540,718.915955 794.941101,718.235718 795.010681,717.497314 
	C795.580139,711.457642 796.278809,705.573853 803.209595,703.134277 
	C803.877441,702.899170 804.159363,701.723022 804.821167,701.291016 
	C810.375549,697.664368 814.166321,691.356995 821.678650,690.596191 
	C823.314209,690.430542 825.398132,688.754150 826.178284,687.216736 
	C828.330872,682.975037 829.936279,678.451843 831.684265,674.010864 
	C832.240845,672.596741 832.565491,671.091309 833.222168,668.859985 
	C834.681885,670.434937 835.435242,671.247681 836.188599,672.060486 
z"/>
<path fill="#398DEF" opacity="1.000000" stroke="none" 
	d="
M836.300537,671.665405 
	C835.435242,671.247681 834.681885,670.434937 833.222168,668.859985 
	C832.565491,671.091309 832.240845,672.596741 831.684265,674.010864 
	C829.936279,678.451843 828.330872,682.975037 826.178284,687.216736 
	C825.398132,688.754150 823.314209,690.430542 821.678650,690.596191 
	C814.166321,691.356995 810.375549,697.664368 804.821167,701.291016 
	C804.159363,701.723022 803.877441,702.899170 803.209595,703.134277 
	C796.278809,705.573853 795.580139,711.457642 795.010681,717.497314 
	C794.941101,718.235718 794.253540,718.915955 793.557556,719.808594 
	C793.189575,707.837708 793.057129,695.681458 793.053284,683.525146 
	C793.035767,627.712341 793.054260,571.899536 793.444275,515.463257 
	C796.114014,510.205322 799.184692,506.357819 804.139771,504.318390 
	C804.704285,504.086060 805.138977,503.454498 805.547424,502.939453 
	C814.129089,492.119537 824.766663,483.648590 836.194458,476.077850 
	C836.293213,488.384766 836.474670,500.691681 836.476440,512.998596 
	C836.483948,565.755798 836.438538,618.513062 836.300537,671.665405 
z"/>
<path fill="#02B1DC" opacity="1.000000" stroke="none" 
	d="
M836.297241,475.607544 
	C824.766663,483.648590 814.129089,492.119537 805.547424,502.939453 
	C805.138977,503.454498 804.704285,504.086060 804.139771,504.318390 
	C799.184692,506.357819 796.114014,510.205322 793.522827,515.012207 
	C793.158752,488.586609 793.078247,461.988647 793.053772,435.390594 
	C793.044312,425.086884 792.833679,424.853729 783.208740,421.657043 
	C766.640747,416.154327 750.121460,410.504974 733.573181,404.942627 
	C721.655212,400.936676 709.723328,396.972137 697.297852,392.547363 
	C694.210693,390.440704 691.623291,388.775726 689.437988,387.369507 
	C690.843140,384.837158 692.863953,382.596741 693.317749,380.074432 
	C694.159912,375.393951 696.701294,372.370514 700.342224,369.726013 
	C702.468567,368.181641 704.592285,366.365845 706.046753,364.218109 
	C709.407959,359.254913 713.902039,359.092072 719.180115,359.763672 
	C721.383118,360.043976 723.807739,358.582703 726.131592,357.913300 
	C748.703796,365.343811 771.274170,372.780151 793.849243,380.201813 
	C802.213684,382.951630 810.592285,385.658112 818.959290,388.400208 
	C830.124023,392.059113 836.438049,400.302185 836.473206,411.753265 
	C836.537964,432.880981 836.433838,454.009186 836.297241,475.607544 
z"/>
<path fill="#00D2A7" opacity="1.000000" stroke="none" 
	d="
M725.860046,357.705505 
	C723.807739,358.582703 721.383118,360.043976 719.180115,359.763672 
	C713.902039,359.092072 709.407959,359.254913 706.046753,364.218109 
	C704.592285,366.365845 702.468567,368.181641 700.342224,369.726013 
	C696.701294,372.370514 694.159912,375.393951 693.317749,380.074432 
	C692.863953,382.596741 690.843140,384.837158 689.437988,387.369507 
	C691.623291,388.775726 694.210693,390.440704 696.957031,392.397583 
	C666.385315,382.564636 635.648132,372.459534 604.926208,362.308167 
	C583.822083,355.334747 562.739258,348.297058 541.390869,340.866638 
	C540.388000,340.370483 539.641052,340.295837 538.894165,340.221161 
	C536.802795,339.592133 534.711426,338.963104 532.230225,337.903290 
	C531.188416,337.394318 530.536499,337.316162 529.884521,337.238007 
	C529.884521,337.238007 529.403625,337.246185 529.086548,336.792847 
	C527.008850,332.443420 524.572815,331.031555 520.892090,334.197876 
	C520.892090,334.197876 520.414856,334.213837 520.215149,334.083252 
	C520.731567,332.419647 521.341125,330.823517 522.199219,329.374603 
	C522.831238,328.307434 524.613220,327.192505 524.418945,326.524750 
	C524.072815,325.334808 522.773132,324.190735 521.590942,323.532715 
	C520.022888,322.659851 517.935303,322.605408 516.544922,321.565582 
	C515.505188,320.787964 515.214966,319.008209 514.591003,317.674683 
	C515.899414,317.387756 517.324402,316.631226 518.489624,316.920654 
	C520.376160,317.389221 522.052612,318.644867 523.894897,319.372772 
	C525.005554,319.811584 526.728271,320.459839 527.336243,319.970551 
	C528.110046,319.347809 528.340820,317.652679 528.273926,316.449402 
	C527.922241,310.126953 527.025269,309.643097 521.109924,311.872162 
	C519.761292,312.380371 518.219421,312.375763 516.558594,312.100525 
	C519.126160,308.460266 517.012512,301.296021 524.392883,302.127136 
	C526.725281,302.389832 528.929382,303.791321 531.197510,305.097839 
	C533.502441,306.096771 535.771667,307.194061 538.128845,308.048920 
	C539.147339,308.418213 540.402588,308.554535 541.455627,308.337585 
	C546.610901,307.275543 551.692322,305.775513 556.885071,305.005646 
	C559.881592,304.561371 563.039734,305.207672 566.442810,305.237396 
	C599.726562,315.983521 632.691040,326.859985 665.659424,337.724915 
	C677.805603,341.727783 689.965393,345.689819 702.109741,349.698334 
	C707.210693,351.382019 712.287842,353.137970 717.838867,355.351166 
	C719.860718,356.192413 721.419556,356.543579 722.978333,356.894714 
	C723.848389,357.095703 724.718445,357.296722 725.860046,357.705505 
z"/>
<path fill="#027969" opacity="1.000000" stroke="none" 
	d="
M463.155518,821.234802 
	C463.252869,831.023010 463.402740,840.810974 463.435059,850.599426 
	C463.481659,864.718445 463.442932,878.837708 463.083496,893.317383 
	C460.063660,894.578796 456.747009,894.769531 454.856689,896.509705 
	C448.319031,902.527832 441.952332,908.805176 436.160126,915.534363 
	C432.171112,920.168640 429.240112,925.713623 425.836243,930.851562 
	C423.974518,926.206726 420.596039,921.592529 420.501740,916.912048 
	C419.963837,890.212830 420.208344,863.497864 420.581665,836.102478 
	C421.340637,833.360107 421.956787,831.311035 422.019165,829.245239 
	C422.171967,824.187195 422.069092,819.121338 422.069092,813.969604 
	C429.454163,814.938049 432.406799,812.925842 432.987152,806.566162 
	C433.387360,802.180847 435.738129,800.758667 439.597656,801.104431 
	C444.766022,801.567505 448.155853,799.572083 451.203918,795.233887 
	C453.485748,791.986206 457.440247,789.913696 460.649994,787.317993 
	C461.083923,787.622375 461.517822,787.926819 461.951752,788.231201 
	C461.951752,796.821106 461.865570,805.412415 462.006958,814.000000 
	C462.046753,816.417297 462.754272,818.823486 463.155518,821.234802 
z"/>
<path fill="#01AD8F" opacity="1.000000" stroke="none" 
	d="
M463.207336,820.748047 
	C462.754272,818.823486 462.046753,816.417297 462.006958,814.000000 
	C461.865570,805.412415 461.951752,796.821106 461.951752,788.231201 
	C461.517822,787.926819 461.083923,787.622375 460.649994,787.317993 
	C457.440247,789.913696 453.485748,791.986206 451.203918,795.233887 
	C448.155853,799.572083 444.766022,801.567505 439.597656,801.104431 
	C435.738129,800.758667 433.387360,802.180847 432.987152,806.566162 
	C432.406799,812.925842 429.454163,814.938049 422.069092,813.969604 
	C422.069092,819.121338 422.171967,824.187195 422.019165,829.245239 
	C421.956787,831.311035 421.340637,833.360107 420.689575,835.635864 
	C420.337738,804.852356 420.272736,773.849792 420.592041,742.147461 
	C421.312531,739.705017 421.901520,737.967773 421.939270,736.218689 
	C422.072205,730.058594 421.920776,723.891785 422.098999,717.733887 
	C422.143036,716.211853 422.763367,714.553284 423.573364,713.237244 
	C425.499939,710.107178 427.635864,707.098694 429.810547,704.131409 
	C431.101440,702.370117 432.437836,699.600098 434.082123,699.337219 
	C438.820953,698.579590 442.387299,696.436829 445.722504,693.173157 
	C450.435760,688.561035 455.157379,691.790833 459.307556,694.222351 
	C460.853973,695.128418 461.841187,698.186340 461.875793,700.283081 
	C462.120636,715.102966 462.011963,729.928345 462.126556,744.751099 
	C462.142822,746.855896 462.756775,748.956055 463.094116,751.058350 
	C463.199768,762.004089 463.370544,772.949707 463.393677,783.895630 
	C463.419250,796.017395 463.309814,808.139404 463.207336,820.748047 
z"/>
<path fill="#00D2A7" opacity="1.000000" stroke="none" 
	d="
M463.181793,750.592468 
	C462.756775,748.956055 462.142822,746.855896 462.126556,744.751099 
	C462.011963,729.928345 462.120636,715.102966 461.875793,700.283081 
	C461.841187,698.186340 460.853973,695.128418 459.307556,694.222351 
	C455.157379,691.790833 450.435760,688.561035 445.722504,693.173157 
	C442.387299,696.436829 438.820953,698.579590 434.082123,699.337219 
	C432.437836,699.600098 431.101440,702.370117 429.810547,704.131409 
	C427.635864,707.098694 425.499939,710.107178 423.573364,713.237244 
	C422.763367,714.553284 422.143036,716.211853 422.098999,717.733887 
	C421.920776,723.891785 422.072205,730.058594 421.939270,736.218689 
	C421.901520,737.967773 421.312531,739.705017 420.702698,741.685791 
	C420.367493,717.256714 420.305908,692.589478 420.332275,667.461487 
	C420.946350,665.343811 421.874451,663.699341 421.926300,662.027771 
	C422.112061,656.038696 422.364075,650.013977 421.928986,644.051025 
	C420.938782,630.480774 425.526306,618.236572 430.387299,606.033875 
	C430.893799,604.762390 432.418671,603.929382 433.319031,602.774475 
	C434.685303,601.021912 435.767792,599.029114 437.250885,597.391968 
	C438.691437,595.801941 440.287781,593.763733 442.164795,593.281677 
	C446.007080,592.294922 454.757568,597.951843 456.167450,601.651489 
	C456.579193,602.731873 456.843384,604.286987 457.659302,604.727295 
	C463.132690,607.680664 461.969299,612.762268 461.986053,617.449890 
	C462.026520,628.773193 461.970428,640.097046 462.031799,651.420166 
	C462.042450,653.387268 462.437439,655.352295 462.874756,657.671692 
	C463.177277,674.284058 463.297943,690.542969 463.331360,706.801941 
	C463.361023,721.243408 463.293884,735.685059 463.181793,750.592468 
M423.470428,703.876770 
	C423.275635,703.549622 423.080811,703.222534 422.886017,702.895386 
	C422.767365,702.991089 422.535797,703.154053 422.546875,703.172607 
	C422.740448,703.497925 422.963684,703.805542 423.470428,703.876770 
M461.411835,683.948425 
	C461.411835,683.948425 461.515991,684.105286 461.515991,684.105286 
	C461.515991,684.105286 461.508423,683.908081 461.411835,683.948425 
z"/>
<path fill="#035B55" opacity="1.000000" stroke="none" 
	d="
M425.931274,931.126404 
	C429.240112,925.713623 432.171112,920.168640 436.160126,915.534363 
	C441.952332,908.805176 448.319031,902.527832 454.856689,896.509705 
	C456.747009,894.769531 460.063660,894.578796 463.024475,893.746460 
	C465.380646,896.916687 468.023773,897.260803 471.559570,896.341003 
	C481.849854,893.664307 492.234558,891.349854 502.589325,888.923523 
	C503.357697,888.743469 504.182587,888.804565 504.262604,888.799438 
	C505.675323,892.689880 506.954559,896.144836 508.175598,899.620361 
	C508.502625,900.551208 509.048340,901.653320 508.818512,902.491638 
	C507.329437,907.923096 508.839264,912.960693 510.443176,918.051880 
	C511.668732,921.942017 508.359283,922.582886 505.995361,923.291382 
	C497.874237,925.725403 489.692566,927.968872 481.489532,930.115051 
	C470.709961,932.935547 459.923767,935.747620 449.073395,938.275635 
	C440.199005,940.343384 432.216736,938.690796 425.931274,931.126404 
z"/>
<path fill="#636DFA" opacity="1.000000" stroke="none" 
	d="
M617.129761,755.901245 
	C609.139160,749.159729 607.096558,741.398376 610.750854,732.632080 
	C613.764648,725.402100 621.339905,720.927673 629.588135,721.505432 
	C637.656311,722.070618 644.620667,727.928223 646.454590,736.121826 
	C648.160034,743.741272 646.138550,750.506348 639.832764,755.188904 
	C632.780212,760.425903 625.097839,760.613770 617.129761,755.901245 
z"/>
<path fill="#02B1DC" opacity="1.000000" stroke="none" 
	d="
M643.021118,561.050049 
	C648.072266,568.562805 648.555420,576.024048 643.723938,583.298035 
	C639.515564,589.633728 633.233948,592.676086 625.667236,591.472168 
	C617.425842,590.160889 611.800171,585.309265 609.569580,577.048584 
	C607.322937,568.728638 611.130432,560.238098 618.926514,555.910156 
	C626.735657,551.574951 636.229492,553.497559 643.021118,561.050049 
z"/>
<path fill="#00D2A7" opacity="1.000000" stroke="none" 
	d="
M612.109802,476.243317 
	C619.117126,467.846893 629.249268,465.554077 637.265259,470.286194 
	C645.689941,475.259583 649.182312,484.774628 645.784546,493.497345 
	C641.720886,503.929565 629.850281,508.822601 619.849243,504.187805 
	C609.633179,499.453339 606.187561,487.462250 612.109802,476.243317 
z"/>
<path fill="#398DEF" opacity="1.000000" stroke="none" 
	d="
M621.471069,639.221741 
	C636.507690,635.476135 649.089722,646.018127 646.742065,659.950928 
	C645.190186,669.161072 638.317566,675.315430 628.904114,675.924561 
	C620.723328,676.454041 612.741089,671.039429 610.020996,663.115662 
	C607.158813,654.778076 610.371887,645.779541 617.983398,640.929932 
	C618.959290,640.308167 620.052917,639.871216 621.471069,639.221741 
z"/>
<path fill="#00D89E" opacity="1.000000" stroke="none" 
	d="
M521.166260,334.413116 
	C524.572815,331.031555 527.008850,332.443420 528.888184,336.656982 
	C526.484741,336.192413 523.962585,335.410370 521.166260,334.413116 
z"/>
<path fill="#02B1DC" opacity="1.000000" stroke="none" 
	d="
M722.656372,356.692841 
	C721.419556,356.543579 719.860718,356.192413 718.130432,355.521912 
	C719.417419,355.632019 720.875977,356.061493 722.656372,356.692841 
z"/>
<path fill="#00D89E" opacity="1.000000" stroke="none" 
	d="
M539.116089,340.414856 
	C539.641052,340.295837 540.388000,340.370483 541.094116,340.670898 
	C540.481567,340.800629 539.909729,340.704590 539.116089,340.414856 
z"/>
<path fill="#00D89E" opacity="1.000000" stroke="none" 
	d="
M530.105225,337.429810 
	C530.536499,337.316162 531.188416,337.394318 531.933350,337.702148 
	C531.459534,337.828400 530.892761,337.725006 530.105225,337.429810 
z"/>
<path fill="#00D2A7" opacity="1.000000" stroke="none" 
	d="
M504.120453,313.687683 
	C503.000916,314.383636 501.945648,314.779236 500.890411,315.174866 
	C500.827209,314.446259 500.764008,313.717651 500.700836,312.989044 
	C501.862152,313.121826 503.023438,313.254578 504.120453,313.687683 
z"/>
<path fill="#01AD8F" opacity="1.000000" stroke="none" 
	d="
M423.325439,703.996948 
	C422.963684,703.805542 422.740448,703.497925 422.546875,703.172607 
	C422.535797,703.154053 422.767365,702.991089 422.886017,702.895386 
	C423.080811,703.222534 423.275635,703.549622 423.325439,703.996948 
z"/>
<path fill="#01AD8F" opacity="1.000000" stroke="none" 
	d="
M461.460144,683.928223 
	C461.508423,683.908081 461.515991,684.105286 461.515991,684.105286 
	C461.515991,684.105286 461.411835,683.948425 461.460144,683.928223 
z"/>
</svg>